<svg width="1760" height="520" viewBox="0 0 1760 520" fill="none" xmlns="http://www.w3.org/2000/svg">
<g clip-path="url(#clip0_3_92)">
<path d="M310.44 167.266L246.497 190.583L208.155 252.546L170.171 191.299L105.871 167.862L181.483 285.584L97 419.527H146.654L207.024 320.829L268.169 419.527H317.763L233.697 288.208L310.44 167.266Z" fill="white"/>
<path d="M310.797 134.764L207.381 96L103.966 134.764L207.381 172.513L310.797 134.764Z" fill="white"/>
<path d="M375.574 294.887C378.512 281.125 386.161 268.824 397.195 260.112C408.23 251.4 421.958 246.825 436.004 247.178C449.789 246.865 463.231 251.503 473.899 260.254C484.567 269.004 491.758 281.289 494.171 294.887H375.574ZM436.004 210.979C374.502 210.979 330.802 256.303 330.802 317.847C330.802 379.392 374.859 424 436.718 424C480.061 424 518.938 402.471 534.894 356.849H491.551C481.906 376.887 461.783 387.264 437.075 387.264C403.02 387.264 376.705 366.511 373.371 328.999H538.943C543.051 261.849 501.851 210.979 436.004 210.979Z" fill="white"/>
<path d="M765.302 215.452H711.6L623.426 303.773V215.452H581.571V419.527H623.426V325.302L719.399 419.527H773.459L665.697 312.301L765.302 215.452Z" fill="white"/>
<path d="M886.102 249.981C912.418 249.981 935.042 264.055 942.781 289.699H986.124C976.896 240.32 934.268 210.979 886.102 210.979C872.068 210.65 858.114 213.184 845.088 218.425C832.061 223.667 820.235 231.507 810.328 241.47C800.422 251.432 792.641 263.309 787.459 276.377C782.277 289.446 779.803 303.433 780.186 317.489C780.186 378.378 825.375 424 885.745 424C933.375 424 976.479 395.434 986.124 344.982H942.781C938.996 357.014 931.357 367.461 921.046 374.705C910.735 381.95 898.328 385.588 885.745 385.057C849.07 385.057 822.398 357.207 822.398 317.489C822.398 277.772 848.356 249.981 886.102 249.981Z" fill="white"/>
<path d="M1049.59 336.454C1043.28 374.263 1034.77 385.057 1015.12 385.057C1011.07 385.057 1006.96 384.282 1003.21 383.924V421.793C1010.05 423.059 1016.98 423.796 1023.93 424C1058.76 424 1081.38 400.98 1091.39 340.151L1104.66 254.812H1172.12V419.527H1213.79V215.273H1068.76L1049.59 336.454Z" fill="white"/>
<path d="M1302.21 294.887C1305.12 281.124 1312.76 268.818 1323.78 260.103C1334.81 251.389 1348.54 246.816 1362.58 247.178C1376.36 246.865 1389.8 251.503 1400.47 260.254C1411.14 269.004 1418.33 281.289 1420.74 294.887H1302.21ZM1362.58 210.979C1301.08 210.979 1257.38 256.303 1257.38 317.847C1257.38 379.392 1301.43 424 1363.29 424C1406.63 424 1445.57 402.471 1461.47 356.849H1418.12C1408.48 376.887 1388.36 387.264 1363.71 387.264C1329.59 387.264 1303.28 366.511 1299.94 328.999H1465.58C1469.62 261.849 1428.13 210.979 1362.58 210.979Z" fill="white"/>
<path d="M1596.74 215.452H1488.2V254.812H1554.88V419.527H1596.74V254.812H1663V215.452H1596.74Z" fill="white"/>
</g>
<defs>
<clipPath id="clip0_3_92">
<rect width="1566" height="328" fill="white" transform="translate(97 96)"/>
</clipPath>
</defs>
</svg>
