<svg width="4256" height="858" viewBox="0 0 4256 858" fill="none" xmlns="http://www.w3.org/2000/svg">
<rect width="500" height="500" transform="matrix(4.37114e-08 1 1 -4.37114e-08 128 179)" fill="#131415"/>
<rect width="500" height="500" transform="matrix(4.37114e-08 1 1 -4.37114e-08 628 179)" fill="#363636"/>
<rect x="1628" y="179" width="500" height="500" transform="rotate(90 1628 179)" fill="#D16FFF"/>
<rect width="500" height="500" transform="matrix(4.37114e-08 1 1 -4.37114e-08 1628 179)" fill="#433EFF"/>
<rect width="500" height="500" transform="matrix(4.37114e-08 1 1 -4.37114e-08 2628 179)" fill="#00C2FF"/>
<rect width="500" height="500" transform="matrix(4.37114e-08 1 1 -4.37114e-08 2128 179)" fill="#136EF6"/>
<rect width="500" height="500" transform="matrix(4.37114e-08 1 1 -4.37114e-08 3128 179)" fill="#C7C7C7"/>
<rect x="4128" y="179" width="500" height="500" transform="rotate(90 4128 179)" fill="#EEEEEC"/>
</svg>
