<svg width="1416" height="520" viewBox="0 0 1416 520" fill="none" xmlns="http://www.w3.org/2000/svg">
<path d="M469.102 219.541C406.56 219.541 362.057 265.531 362.057 328.073C362.057 390.615 406.907 435.862 469.845 435.862C513.952 435.862 553.499 414.007 569.705 367.67H525.598C515.786 388.038 495.07 398.594 470.192 398.594C435.502 398.594 408.74 377.483 405.37 339.422H573.818C577.981 271.181 535.807 219.541 469.102 219.541ZM407.65 304.731C414.786 276.83 436.641 256.511 469.102 256.511C500.373 256.511 521.881 276.483 528.274 304.731H407.65Z" fill="black"/>
<path d="M787.562 228.561H736.319L691.865 297.942L645.875 228.561H594.979L665.104 329.213L590.816 435.862H642.109L690.329 361.624L740.482 435.862H791.328L717.487 329.956L787.562 228.561Z" fill="black"/>
<path d="M870.521 145.65H827.555V435.862H870.521V145.65Z" fill="black"/>
<path d="M1021.28 219.541C958.735 219.541 914.231 265.531 914.231 328.073C914.231 390.615 959.081 435.862 1022.02 435.862C1066.13 435.862 1105.67 414.007 1121.88 367.67H1077.77C1067.96 388.038 1047.25 398.594 1022.37 398.594C987.676 398.594 960.915 377.483 957.545 339.422H1125.99C1130.21 271.181 1087.98 219.541 1021.28 219.541ZM959.825 304.731C966.961 276.83 988.866 256.511 1021.28 256.511C1052.55 256.511 1074.06 276.483 1080.45 304.731H959.825Z" fill="black"/>
<path d="M1319.42 386.106C1303.21 391.755 1288.49 396.265 1275.31 396.265C1248.55 396.265 1234.62 379.663 1234.62 349.532V263.995H1319.81V224.051H1234.62V167.505L1192.05 176.921V224.051H1153.6V263.995H1192.05V351.812C1192.05 409.101 1225.21 435.862 1267.83 435.862C1291.57 435.862 1315.7 427.586 1327 420.796L1319.42 386.106Z" fill="black"/>
<path d="M268.937 187.874V279.853H133.643V187.874L91.0234 172.362V435.862H133.643V320.54H268.937V435.862H311.507V172.362L268.937 187.874Z" fill="black"/>
<path d="M314.53 126.422L201.29 84L88 126.422L201.29 167.654L314.53 126.422Z" fill="black"/>
</svg>
