<svg width="2610" height="1132" viewBox="0 0 2610 1132" fill="none" xmlns="http://www.w3.org/2000/svg">
<rect x="379.214" y="320.214" width="189.214" height="189.214" transform="rotate(180 379.214 320.214)" fill="#F5F5F5"/>
<rect x="606.041" y="320.214" width="189.214" height="189.214" transform="rotate(180 606.041 320.214)" fill="#EBEBEB"/>
<rect x="832.868" y="320.214" width="189.214" height="189.214" transform="rotate(180 832.868 320.214)" fill="#D9D9D9"/>
<rect x="1059.7" y="320.214" width="189.214" height="189.214" transform="rotate(180 1059.7 320.214)" fill="#C1C1C1"/>
<rect x="1286.52" y="320.214" width="189.214" height="189.214" transform="rotate(180 1286.52 320.214)" fill="#9C9C9C"/>
<rect x="1513.35" y="320.214" width="189.214" height="189.214" transform="rotate(180 1513.35 320.214)" fill="#777777"/>
<rect x="1740.18" y="320.214" width="189.214" height="189.214" transform="rotate(180 1740.18 320.214)" fill="#595959"/>
<rect x="1967" y="320.214" width="189.214" height="189.214" transform="rotate(180 1967 320.214)" fill="#363636"/>
<rect x="2193.83" y="320.214" width="189.214" height="189.214" transform="rotate(180 2193.83 320.214)" fill="#212121"/>
<rect x="2420.66" y="320.214" width="189.214" height="189.214" transform="rotate(180 2420.66 320.214)" fill="#131415"/>
<rect x="379.213" y="547.04" width="189.213" height="189.213" transform="rotate(180 379.213 547.04)" fill="#F3DAFF"/>
<rect x="606.039" y="547.041" width="189.213" height="189.213" transform="rotate(180 606.039 547.041)" fill="#E8B8FF"/>
<rect x="832.865" y="547.04" width="189.213" height="189.213" transform="rotate(180 832.865 547.04)" fill="#DC92FF"/>
<rect x="1059.69" y="547.04" width="189.213" height="189.213" transform="rotate(180 1059.69 547.04)" fill="#D16FFF"/>
<rect x="1286.52" y="547.041" width="189.213" height="189.213" transform="rotate(180 1286.52 547.041)" fill="#C03AFF"/>
<rect x="1513.34" y="547.041" width="189.213" height="189.213" transform="rotate(180 1513.34 547.041)" fill="#AD00FF"/>
<rect x="1740.17" y="547.04" width="189.213" height="189.213" transform="rotate(180 1740.17 547.04)" fill="#8B00CC"/>
<rect x="1967" y="547.041" width="189.213" height="189.213" transform="rotate(180 1967 547.041)" fill="#7000A5"/>
<rect x="2193.82" y="547.04" width="189.213" height="189.213" transform="rotate(180 2193.82 547.04)" fill="#4D0170"/>
<rect x="2420.65" y="547.04" width="189.213" height="189.213" transform="rotate(180 2420.65 547.04)" fill="#29003D"/>
<rect width="189.213" height="189.213" transform="matrix(-1 0 0 1 379.213 584.653)" fill="#E6EBFF"/>
<rect width="189.213" height="189.213" transform="matrix(-1 0 0 1 606.039 584.653)" fill="#B4C3FF"/>
<rect width="189.213" height="189.213" transform="matrix(-1 0 0 1 832.865 584.653)" fill="#928FFF"/>
<rect width="189.213" height="189.213" transform="matrix(-1 0 0 1 1059.69 584.653)" fill="#6C68FF"/>
<rect width="189.213" height="189.213" transform="matrix(-1 0 0 1 1286.52 584.653)" fill="#433EFF"/>
<rect width="189.213" height="189.213" transform="matrix(-1 0 0 1 1513.34 584.653)" fill="#241EFF"/>
<rect width="189.213" height="189.213" transform="matrix(-1 0 0 1 1740.17 584.653)" fill="#0500C3"/>
<rect width="189.213" height="189.213" transform="matrix(-1 0 0 1 1967 584.653)" fill="#04008A"/>
<rect width="189.213" height="189.213" transform="matrix(-1 0 0 1 2193.82 584.653)" fill="#030060"/>
<rect width="189.213" height="189.213" transform="matrix(-1 0 0 1 2420.65 584.653)" fill="#020042"/>
<rect width="189.213" height="189.069" transform="matrix(-1 0 0 1 379.213 811.479)" fill="#E6F9FF"/>
<rect width="189.213" height="189.069" transform="matrix(-1 0 0 1 606.04 811.479)" fill="#CBF3FF"/>
<rect width="189.213" height="189.069" transform="matrix(-1 0 0 1 832.866 811.479)" fill="#A3E9FF"/>
<rect width="189.213" height="189.069" transform="matrix(-1 0 0 1 1059.69 811.479)" fill="#7DE0FF"/>
<rect width="189.213" height="189.069" transform="matrix(-1 0 0 1 1286.52 811.479)" fill="#44D2FF"/>
<rect width="189.213" height="189.069" transform="matrix(-1 0 0 1 1513.34 811.479)" fill="#00C2FF"/>
<rect width="189.213" height="189.069" transform="matrix(-1 0 0 1 1740.17 811.479)" fill="#019ED0"/>
<rect width="189.213" height="189.069" transform="matrix(-1 0 0 1 1967 811.479)" fill="#037EA5"/>
<rect width="189.213" height="189.069" transform="matrix(-1 0 0 1 2193.82 811.479)" fill="#005B78"/>
<rect width="189.213" height="189.069" transform="matrix(-1 0 0 1 2420.65 811.479)" fill="#013E51"/>
</svg>
